<mxfile host="app.diagrams.net" modified="2020-11-12T22:41:42.214Z" agent="5.0 (Windows NT 10.0; Win64; x64) AppleWebKit/537.36 (KHTML, like Gecko) Chrome/86.0.4240.193 Safari/537.36" etag="mb6H-koJglWy5Usr_DsJ" version="13.9.2" type="github">
  <diagram id="l1r57VE0aDhEDlQBZecK" name="Page-1">
    <mxGraphModel dx="920" dy="1314" grid="1" gridSize="10" guides="1" tooltips="1" connect="1" arrows="1" fold="1" page="1" pageScale="1" pageWidth="827" pageHeight="1169" math="0" shadow="0">
      <root>
        <mxCell id="0" />
        <mxCell id="1" parent="0" />
        <mxCell id="YwT9MS-b_L612yAkcFdb-12" style="edgeStyle=none;rounded=0;orthogonalLoop=1;jettySize=auto;html=1;exitX=1;exitY=0.5;exitDx=0;exitDy=0;entryX=0;entryY=0.5;entryDx=0;entryDy=0;" edge="1" parent="1" source="YwT9MS-b_L612yAkcFdb-1" target="YwT9MS-b_L612yAkcFdb-30">
          <mxGeometry relative="1" as="geometry" />
        </mxCell>
        <mxCell id="YwT9MS-b_L612yAkcFdb-1" value="" style="ellipse;fillColor=#000000;strokeColor=none;" vertex="1" parent="1">
          <mxGeometry x="30" y="80" width="30" height="30" as="geometry" />
        </mxCell>
        <mxCell id="YwT9MS-b_L612yAkcFdb-32" style="edgeStyle=none;rounded=0;orthogonalLoop=1;jettySize=auto;html=1;exitX=1;exitY=0.5;exitDx=0;exitDy=0;entryX=0.5;entryY=0;entryDx=0;entryDy=0;" edge="1" parent="1" source="YwT9MS-b_L612yAkcFdb-2" target="YwT9MS-b_L612yAkcFdb-5">
          <mxGeometry relative="1" as="geometry">
            <Array as="points">
              <mxPoint x="440" y="230" />
            </Array>
          </mxGeometry>
        </mxCell>
        <mxCell id="YwT9MS-b_L612yAkcFdb-2" value="Fachfeinkonzept erstellen" style="html=1;align=center;verticalAlign=top;rounded=1;absoluteArcSize=1;arcSize=10;dashed=0;" vertex="1" parent="1">
          <mxGeometry x="200" y="75" width="140" height="40" as="geometry" />
        </mxCell>
        <mxCell id="YwT9MS-b_L612yAkcFdb-3" value="Fachfeinkonzept &lt;br&gt;kontrollieren" style="html=1;align=center;verticalAlign=top;rounded=1;absoluteArcSize=1;arcSize=10;dashed=0;" vertex="1" parent="1">
          <mxGeometry x="400" y="35" width="140" height="40" as="geometry" />
        </mxCell>
        <mxCell id="YwT9MS-b_L612yAkcFdb-17" style="edgeStyle=none;rounded=0;orthogonalLoop=1;jettySize=auto;html=1;exitX=1;exitY=0.5;exitDx=0;exitDy=0;entryX=0;entryY=0.5;entryDx=0;entryDy=0;" edge="1" parent="1" source="YwT9MS-b_L612yAkcFdb-5" target="YwT9MS-b_L612yAkcFdb-7">
          <mxGeometry relative="1" as="geometry" />
        </mxCell>
        <mxCell id="YwT9MS-b_L612yAkcFdb-5" value="" style="ellipse;fillColor=#000000;strokeColor=none;" vertex="1" parent="1">
          <mxGeometry x="40" y="335" width="30" height="30" as="geometry" />
        </mxCell>
        <mxCell id="YwT9MS-b_L612yAkcFdb-6" value="" style="ellipse;html=1;shape=endState;fillColor=#000000;strokeColor=#000000;" vertex="1" parent="1">
          <mxGeometry x="780" y="335" width="30" height="30" as="geometry" />
        </mxCell>
        <mxCell id="YwT9MS-b_L612yAkcFdb-18" style="edgeStyle=none;rounded=0;orthogonalLoop=1;jettySize=auto;html=1;exitX=1;exitY=0.5;exitDx=0;exitDy=0;entryX=0;entryY=0.5;entryDx=0;entryDy=0;" edge="1" parent="1" source="YwT9MS-b_L612yAkcFdb-7" target="YwT9MS-b_L612yAkcFdb-8">
          <mxGeometry relative="1" as="geometry" />
        </mxCell>
        <mxCell id="YwT9MS-b_L612yAkcFdb-7" value="Dokument auf Richtigkeit&lt;br&gt;kontrollieren" style="html=1;align=center;verticalAlign=top;rounded=1;absoluteArcSize=1;arcSize=10;dashed=0;" vertex="1" parent="1">
          <mxGeometry x="90" y="330" width="140" height="40" as="geometry" />
        </mxCell>
        <mxCell id="YwT9MS-b_L612yAkcFdb-20" style="edgeStyle=none;rounded=0;orthogonalLoop=1;jettySize=auto;html=1;exitX=1;exitY=0.5;exitDx=0;exitDy=0;entryX=0;entryY=0.5;entryDx=0;entryDy=0;" edge="1" parent="1" source="YwT9MS-b_L612yAkcFdb-8" target="YwT9MS-b_L612yAkcFdb-9">
          <mxGeometry relative="1" as="geometry" />
        </mxCell>
        <mxCell id="YwT9MS-b_L612yAkcFdb-8" value="" style="rhombus;" vertex="1" parent="1">
          <mxGeometry x="250" y="335" width="30" height="30" as="geometry" />
        </mxCell>
        <mxCell id="YwT9MS-b_L612yAkcFdb-21" style="edgeStyle=none;rounded=0;orthogonalLoop=1;jettySize=auto;html=1;exitX=1;exitY=0.5;exitDx=0;exitDy=0;entryX=0;entryY=0.5;entryDx=0;entryDy=0;" edge="1" parent="1" source="YwT9MS-b_L612yAkcFdb-9" target="YwT9MS-b_L612yAkcFdb-10">
          <mxGeometry relative="1" as="geometry" />
        </mxCell>
        <mxCell id="YwT9MS-b_L612yAkcFdb-9" value="In einheitliches Format&lt;br&gt;bringen" style="html=1;align=center;verticalAlign=top;rounded=1;absoluteArcSize=1;arcSize=10;dashed=0;" vertex="1" parent="1">
          <mxGeometry x="300" y="330" width="140" height="40" as="geometry" />
        </mxCell>
        <mxCell id="YwT9MS-b_L612yAkcFdb-22" style="edgeStyle=none;rounded=0;orthogonalLoop=1;jettySize=auto;html=1;exitX=1;exitY=0.5;exitDx=0;exitDy=0;entryX=0;entryY=0.5;entryDx=0;entryDy=0;" edge="1" parent="1" source="YwT9MS-b_L612yAkcFdb-10" target="YwT9MS-b_L612yAkcFdb-11">
          <mxGeometry relative="1" as="geometry" />
        </mxCell>
        <mxCell id="YwT9MS-b_L612yAkcFdb-10" value="in internem Projekt-&lt;br&gt;Sharepoint ablegen" style="html=1;align=center;verticalAlign=top;rounded=1;absoluteArcSize=1;arcSize=10;dashed=0;" vertex="1" parent="1">
          <mxGeometry x="460" y="330" width="140" height="40" as="geometry" />
        </mxCell>
        <mxCell id="YwT9MS-b_L612yAkcFdb-23" style="edgeStyle=none;rounded=0;orthogonalLoop=1;jettySize=auto;html=1;exitX=1;exitY=0.5;exitDx=0;exitDy=0;entryX=0;entryY=0.5;entryDx=0;entryDy=0;" edge="1" parent="1" source="YwT9MS-b_L612yAkcFdb-11" target="YwT9MS-b_L612yAkcFdb-6">
          <mxGeometry relative="1" as="geometry" />
        </mxCell>
        <mxCell id="YwT9MS-b_L612yAkcFdb-11" value="Stakeholder &lt;br&gt;benachrichtigen" style="html=1;align=center;verticalAlign=top;rounded=1;absoluteArcSize=1;arcSize=10;dashed=0;" vertex="1" parent="1">
          <mxGeometry x="620" y="330" width="140" height="40" as="geometry" />
        </mxCell>
        <mxCell id="YwT9MS-b_L612yAkcFdb-25" style="edgeStyle=none;rounded=0;orthogonalLoop=1;jettySize=auto;html=1;exitX=0;exitY=0.5;exitDx=0;exitDy=0;" edge="1" parent="1" source="YwT9MS-b_L612yAkcFdb-3" target="YwT9MS-b_L612yAkcFdb-3">
          <mxGeometry relative="1" as="geometry" />
        </mxCell>
        <mxCell id="YwT9MS-b_L612yAkcFdb-26" value="Fachfeinkonzept kontrollieren" style="shape=umlFrame;whiteSpace=wrap;html=1;width=91;height=40;" vertex="1" parent="1">
          <mxGeometry x="40" y="500" width="790" height="200" as="geometry" />
        </mxCell>
        <mxCell id="YwT9MS-b_L612yAkcFdb-28" value="" style="endArrow=classic;html=1;exitX=0.5;exitY=0;exitDx=0;exitDy=0;entryX=0.5;entryY=1;entryDx=0;entryDy=0;" edge="1" parent="1" source="YwT9MS-b_L612yAkcFdb-8" target="YwT9MS-b_L612yAkcFdb-30">
          <mxGeometry relative="1" as="geometry">
            <mxPoint x="380" y="170" as="sourcePoint" />
            <mxPoint x="100" y="210" as="targetPoint" />
            <Array as="points">
              <mxPoint x="260" y="190" />
            </Array>
          </mxGeometry>
        </mxCell>
        <mxCell id="YwT9MS-b_L612yAkcFdb-29" value="Label" style="edgeLabel;resizable=0;html=1;align=center;verticalAlign=middle;" connectable="0" vertex="1" parent="YwT9MS-b_L612yAkcFdb-28">
          <mxGeometry relative="1" as="geometry" />
        </mxCell>
        <mxCell id="YwT9MS-b_L612yAkcFdb-31" style="edgeStyle=none;rounded=0;orthogonalLoop=1;jettySize=auto;html=1;exitX=1;exitY=0.5;exitDx=0;exitDy=0;entryX=0;entryY=0.5;entryDx=0;entryDy=0;" edge="1" parent="1" source="YwT9MS-b_L612yAkcFdb-30" target="YwT9MS-b_L612yAkcFdb-2">
          <mxGeometry relative="1" as="geometry" />
        </mxCell>
        <mxCell id="YwT9MS-b_L612yAkcFdb-30" value="" style="ellipse;fillColor=#ffffff;strokeColor=#000000;" vertex="1" parent="1">
          <mxGeometry x="110" y="80" width="30" height="30" as="geometry" />
        </mxCell>
      </root>
    </mxGraphModel>
  </diagram>
</mxfile>
